<svg id="visual" viewBox="0 0 960 540" width="960" height="540" xmlns="http://www.w3.org/2000/svg" xmlns:xlink="http://www.w3.org/1999/xlink" version="1.1"><rect width="960" height="540" fill="#040b10"></rect><g><g transform="translate(133 164)"><path d="M0 -64.4L45.5 -45.5L64.4 0L45.5 45.5L0 64.4L-45.5 45.5L-64.4 0L-45.5 -45.5Z" fill="none" stroke="#297EA6" stroke-width="2"></path></g><g transform="translate(555 29)"><path d="M0 -41L29 -29L41 0L29 29L0 41L-29 29L-41 0L-29 -29Z" fill="none" stroke="#297EA6" stroke-width="2"></path></g><g transform="translate(702 420)"><path d="M0 -35L24.7 -24.7L35 0L24.7 24.7L0 35L-24.7 24.7L-35 0L-24.7 -24.7Z" stroke="#297EA6" fill="none" stroke-width="2"></path></g><g transform="translate(593 157)"><path d="M0 -44L31.1 -31.1L44 0L31.1 31.1L0 44L-31.1 31.1L-44 0L-31.1 -31.1Z" stroke="#297EA6" fill="none" stroke-width="2"></path></g><g transform="translate(876 373)"><path d="M0 -55L38.9 -38.9L55 0L38.9 38.9L0 55L-38.9 38.9L-55 0L-38.9 -38.9Z" stroke="#297EA6" fill="none" stroke-width="2"></path></g><g transform="translate(893 108)"><path d="M0 -49L34.6 -34.6L49 0L34.6 34.6L0 49L-34.6 34.6L-49 0L-34.6 -34.6Z" stroke="#297EA6" fill="none" stroke-width="2"></path></g><g transform="translate(264 63)"><path d="M0 -58L41 -41L58 0L41 41L0 58L-41 41L-58 0L-41 -41Z" stroke="#297EA6" fill="none" stroke-width="2"></path></g><g transform="translate(274 275)"><path d="M0 -61L43.1 -43.1L61 0L43.1 43.1L0 61L-43.1 43.1L-61 0L-43.1 -43.1Z" stroke="#297EA6" fill="none" stroke-width="2"></path></g><g transform="translate(801 236)"><path d="M0 -60L42.4 -42.4L60 0L42.4 42.4L0 60L-42.4 42.4L-60 0L-42.4 -42.4Z" stroke="#297EA6" fill="none" stroke-width="2"></path></g><g transform="translate(38 481)"><path d="M0 -46L32.5 -32.5L46 0L32.5 32.5L0 46L-32.5 32.5L-46 0L-32.5 -32.5Z" stroke="#297EA6" fill="none" stroke-width="2"></path></g><g transform="translate(461 274)"><path d="M0 -34L24 -24L34 0L24 24L0 34L-24 24L-34 0L-24 -24Z" stroke="#297EA6" fill="none" stroke-width="2"></path></g><g transform="translate(763 30)"><path d="M0 -41L29 -29L41 0L29 29L0 41L-29 29L-41 0L-29 -29Z" stroke="#297EA6" fill="none" stroke-width="2"></path></g><g transform="translate(22 50)"><path d="M0 -32L22.6 -22.6L32 0L22.6 22.6L0 32L-22.6 22.6L-32 0L-22.6 -22.6Z" stroke="#297EA6" fill="none" stroke-width="2"></path></g><g transform="translate(434 480)"><path d="M0 -44L31.1 -31.1L44 0L31.1 31.1L0 44L-31.1 31.1L-44 0L-31.1 -31.1Z" stroke="#297EA6" fill="none" stroke-width="2"></path></g><g transform="translate(89 302)"><path d="M0 -44L31.1 -31.1L44 0L31.1 31.1L0 44L-31.1 31.1L-44 0L-31.1 -31.1Z" stroke="#297EA6" fill="none" stroke-width="2"></path></g><g transform="translate(405 39)"><path d="M0 -43L30.4 -30.4L43 0L30.4 30.4L0 43L-30.4 30.4L-43 0L-30.4 -30.4Z" stroke="#297EA6" fill="none" stroke-width="2"></path></g><g transform="translate(812 529)"><path d="M0 -38L26.9 -26.9L38 0L26.9 26.9L0 38L-26.9 26.9L-38 0L-26.9 -26.9Z" stroke="#297EA6" fill="none" stroke-width="2"></path></g><g transform="translate(281 449)"><path d="M0 -48L33.9 -33.9L48 0L33.9 33.9L0 48L-33.9 33.9L-48 0L-33.9 -33.9Z" stroke="#297EA6" fill="none" stroke-width="2"></path></g><g transform="translate(674 276)"><path d="M0 -41L29 -29L41 0L29 29L0 41L-29 29L-41 0L-29 -29Z" stroke="#297EA6" fill="none" stroke-width="2"></path></g><g transform="translate(556 422)"><path d="M0 -63L44.5 -44.5L63 0L44.5 44.5L0 63L-44.5 44.5L-63 0L-44.5 -44.5Z" stroke="#297EA6" fill="none" stroke-width="2"></path></g><g transform="translate(930 255)"><path d="M0 -61L43.1 -43.1L61 0L43.1 43.1L0 61L-43.1 43.1L-61 0L-43.1 -43.1Z" stroke="#297EA6" fill="none" stroke-width="2"></path></g><g transform="translate(631 539)"><path d="M0 -38L26.9 -26.9L38 0L26.9 26.9L0 38L-26.9 26.9L-38 0L-26.9 -26.9Z" stroke="#297EA6" fill="none" stroke-width="2"></path></g><g transform="translate(179 535)"><path d="M0 -43L30.4 -30.4L43 0L30.4 30.4L0 43L-30.4 30.4L-43 0L-30.4 -30.4Z" stroke="#297EA6" fill="none" stroke-width="2"></path></g></g></svg>